<?xml version="1.0" standalone="no"?>
<!DOCTYPE svg PUBLIC "-//W3C//DTD SVG 1.1//EN" "http://www.w3.org/Graphics/SVG/1.1/DTD/svg11.dtd">
<svg xmlns="http://www.w3.org/2000/svg" width="1000" height="417" viewBox="0 0 1000 417"><path fill="#FBF6F9" stroke="#FBF6F9" d="m22.5 40 .5 336.5h-1L22.5 40ZM976.5 40l.5 336.5h-1l.5-336.5ZM28.5 44l943.5.5-943.5.5v-1ZM340.5 88h14l1.5 1.5-1.5-.5h-14l-.5 2.5.5 1.5-1.5-3.5 1.5-1.5ZM407.5 88l7.5.5-7.5.5v-1ZM208.5 89l-.5 1.5-.5 1.5-.5-1.5 1.5-1.5ZM303.5 89l4.5.5-4.5.5v-1ZM482.5 89l-.5 1.5V194h56.5v1h-56l-1.5-1.5v-103l1.5-1.5Z"/><path fill="#FBF6F9" stroke="#FBF6F9" d="m494.5 89 1.5 1.5V186h42.5l1.5 1.5-1.5-.5H495V90.5l-.5-1.5ZM595.5 89l1 2-1-2ZM637.5 89h12l1.5 1.5-.5 70.5-.5-71h-12.5l-.5.5v66h-1v-66l1.5-1.5ZM707.5 89h12l1.5 1.5-.5 69.5-.5-70h-12.5l-.5.5v72h-1v-72l1.5-1.5ZM772.5 89l2.5.5-2.5.5v-1ZM857.5 89l1 2-1-2ZM415.5 90l.5 1.5-2 1 1.5-2.5ZM115.5 91l.5 93.5h-1l.5-93.5ZM262.5 91l.5 101.5h-1l.5-101.5ZM734.5 91l.5 102.5 1 1-2-1 .5-102.5ZM405.5 92l-.5 1.5-1.5 2.5.5-1.5 1.5-2.5ZM319.5 93l6.5 3.5-1.5-.5-5-2v-1ZM357.5 93l2.5 3.5-2-1-.5-2.5ZM784.5 93l1 2-1-2ZM205.5 95l.5 1.5-1.5 2.5-.5-1.5 1.5-2.5ZM342.5 96l1 2-1-2ZM788.5 96l2 3-2-3ZM277.5 97l24.5.5-24.5.5v-1ZM749.5 97l17.5.5-17.5.5v-1ZM329.5 98l3 4-3-4ZM360.5 98l2.5 3.5-2-1-.5-2.5ZM411.5 98l-.5 1.5-1.5 2.5.5-1.5 1.5-2.5ZM344.5 99l2.5 3.5-2-1-.5-2.5ZM310.5 100l6.5 3.5-1.5-.5-5-2v-1ZM775.5 100l6 7-6-7ZM220.5 101l1.5 3.5h-1l-.5-3.5ZM400.5 101l-.5 1.5-1.5 2.5.5-1.5 1.5-2.5ZM792.5 101l1 2-1-2ZM202.5 103l.5 1.5-1.5 2.5-.5-1.5 1.5-2.5ZM363.5 103l2.5 3.5-2-1-.5-2.5ZM318.5 104l1 2-1-2ZM347.5 104l2.5 3.5-2-1-.5-2.5ZM321.5 106l3 4-3-4ZM339.5 108l2 3-2-3ZM366.5 108l1 2-1-2ZM223.5 109l1.5 3.5h-1l-.5-3.5ZM350.5 109l2.5 3.5-2-1-.5-2.5ZM199.5 110l.5 1.5-1.5 2.5-.5-1.5 1.5-2.5ZM404.5 111l-.5 1.5-1.5 2.5.5-1.5 1.5-2.5ZM588.5 111q2.3-.7 1.5 1.5l-1.5-1.5ZM850.5 111q2.3-.7 1.5 1.5l-1.5-1.5ZM327.5 112l2 3-2-3ZM342.5 112l1 2-1-2ZM784.5 113l.5 8.5h-1l.5-8.5ZM797.5 113l.5 8.5h-1l.5-8.5ZM225.5 114l1.5 3.5h-1l-.5-3.5ZM353.5 114l2.5 3.5-2-1-.5-2.5ZM393.5 114l-.5 1.5-1.5 2.5.5-1.5 1.5-2.5ZM344.5 115l1 2-1-2ZM370.5 115l1 2-1-2ZM330.5 116l1 2-1-2ZM372.5 118l1 2-1-2ZM332.5 119l1 2-1-2ZM356.5 119l1 2-1-2ZM399.5 120l-.5 1.5-1.5 3.5-.5-1.5 2.5-3.5ZM194.5 122l.5 1.5-1.5 2.5-.5-1.5 1.5-2.5ZM334.5 122l1.5 3.5h-1l-.5-3.5ZM375.5 123l1 2-1-2ZM388.5 123l-.5 1.5-2.5 4.5.5-1.5 2.5-4.5ZM214.5 125l1.5 3.5h-1l-.5-3.5ZM360.5 126l1 2-1-2ZM396.5 126l-1 2 1-2ZM378.5 128l2.5 3.5-2-1-.5-2.5ZM781.5 128l-2 3 2-3ZM350.5 129l.5 2.5h-1l.5-2.5ZM362.5 129l2.5 3.5-2-1-.5-2.5ZM216.5 130l1.5 3.5h-1l-.5-3.5ZM777.5 132l-2 3 2-3ZM793.5 132l-1 2 1-2ZM381.5 133l1 2-1-2ZM198.5 134l.5 1.5-1.5 2.5-.5-1.5 1.5-2.5ZM338.5 134l.5 4.5h-1l.5-4.5ZM351.5 134l.5 15.5h-1l.5-15.5ZM365.5 134l1 2-1-2ZM218.5 135l1.5 3.5h-1l-.5-3.5ZM391.5 135l-1 2 1-2ZM578.5 135l.5 1.5-1.5 2.5-.5-1.5 1.5-2.5ZM749.5 137l16.5.5-16.5.5v-1ZM785.5 140l-1 2 1-2ZM369.5 141l1 2-1-2ZM185.5 144l.5 1.5-1.5 2.5-.5-1.5 1.5-2.5ZM777 144l2 .5-.5 2.5-1.5-3ZM338.5 145l.5 4.5h-1l.5-4.5ZM781.5 148l8 9-8-9ZM192.5 149l.5 1.5-1.5 2.5-.5-1.5 1.5-2.5ZM766.5 149l1 2-1-2ZM239.5 150l1.5 3.5h-1l-.5-3.5ZM769.5 151l2 3-2-3ZM350.5 152l.5 2.5h-1l.5-2.5ZM774.5 155l1 2-1-2ZM189.5 156l.5 1.5-1.5 2.5-.5-1.5 1.5-2.5ZM242.5 158l1.5 3.5h-1l-.5-3.5ZM335.5 158l.5 1.5-3.5 5.5.5-1.5 2.5-5.5ZM179.5 159l.5 1.5-1.5 2.5-.5-1.5 1.5-2.5ZM777.5 159l2 3-2-3ZM791.5 159l1 2-1-2ZM637.5 160l.5 2.5h-1l.5-2.5ZM187.5 161l.5 1.5-1.5 2.5-.5-1.5 1.5-2.5ZM347.5 162l.5 1.5-2.5 3.5.5-1.5 1.5-3.5ZM793.5 162l1 2-1-2ZM244.5 163l1.5 3.5h-1l-.5-3.5ZM780.5 163l1 2-1-2ZM331.5 166l-1 2 1-2ZM329.5 169l-8 9 8-9ZM564.5 169l.5 1.5-1.5 2.5-.5-1.5 1.5-2.5ZM343.5 170l-1 2 1-2ZM640.5 170l1.5 2.5-2-1 .5-1.5ZM174.5 171l.5 1.5-1.5 2.5-.5-1.5 1.5-2.5ZM183.5 171l.5 1.5-1.5 2.5-.5-1.5 1.5-2.5ZM248.5 173l1.5 3.5h-1l-.5-3.5ZM341.5 173l-3 4 3-4ZM702.5 173l-1 2 1-2ZM655.5 174l2 3-2-3ZM644.5 177l1 2-1-2ZM699.5 177l-3 4 3-4ZM180.5 178l.5 1.5-1.5 2.5-.5-1.5 1.5-2.5ZM319.5 178l-1 2 1-2ZM711.5 179l-6 7 6-7ZM316.5 180l-1 2-5 2v-1l6-3ZM170.5 181l.5 1.5-1.5 2.5-.5-1.5 1.5-2.5ZM333.5 181l-3 4 3-4ZM647.5 181l3 4-3-4ZM662.5 181l1 2-1-2ZM788.5 184l.5 8.5h-1l.5-8.5ZM302.5 185l2.5.5-2.5.5v-1ZM328.5 185l-1 2 1-2ZM801.5 185l.5 8.5-1.5 1.5h-10v-1H801l.5-9ZM115.5 186h43l1.5 1.5q1.5 6-1.5 7.5h-56l-1.5-1.5 1.5.5h56l.5-.5V187h-43.5v-1ZM277.5 186l22.5.5-22.5.5v-1ZM653.5 186l1 2-1-2ZM674.5 186l8.5.5-8.5.5v-1ZM702.5 187l-1 2 1-2ZM323.5 188l-1 2-1.5-.5 2.5-1.5ZM656.5 188l1 2-1-2ZM239.5 189l1.5 3.5h-1l-.5-3.5ZM547.5 189l.5 1.5-1 3.5q6.1 1.8 8-1.5l.5-1.5.5 1.5q-1.5 4-8.5 2.5l-1.5-3.5 1.5-2.5ZM699.5 189l-1 2-3 1v-1l4-2ZM175.5 190l.5 1.5-2.5 3.5q-6 1.5-7.5-1.5l.5-2.5.5 3h6.5l.5-1.5 1.5-2.5ZM255.5 191l.5 2.5-1.5 1.5h-13v-1h13l1-3ZM808.5 192l.5 2 7 .5-6.5.5-1-3ZM635.5 193l-1 2-12.5-.5 12.5-.5 1-1ZM748.5 193l-1 2 1-2ZM263.5 194l44.5.5-44.5.5v-1ZM669.5 194l4.5.5-4.5.5v-1ZM684.5 194l3.5.5-3.5.5v-1ZM884.5 194l12.5.5-12.5.5v-1ZM416.5 203h3l4.5 4.5-4.5-3.5q-4 .8-3-1ZM502.5 203q3.8-.7 4.5 1.5l-1.5-.5q-4 .8-3-1ZM500.5 204l-3 4 3-4ZM415.5 205l-1 2 1-2ZM413.5 208l-2 3 2-3ZM424.5 209l.5 2.5h-1l.5-2.5ZM496.5 209l-1 2 1-2ZM410.5 212l-3 4 3-4ZM423.5 213l-3 4 3-4ZM493.5 214l-1 2 1-2ZM491.5 217l-1 2 1-2ZM419.5 218l-2 3 2-3ZM404.5 220l-1 2 1-2ZM416.5 222l-1.5 2.5-3.5 4.5 2.5-3.5 2.5-3.5ZM488.5 222l-1 2 1-2ZM402.5 223l-1 2 1-2ZM486.5 225l-1 2 1-2ZM400.5 226l-2 3 2-3ZM502.5 226l-1 2 1-2ZM500.5 229l-.5 1.5-1.5 2.5.5-1.5 1.5-2.5ZM483.5 230l-1 2 1-2ZM396.5 232l-1 2 1-2ZM409.5 232l-1 2 1-2ZM481.5 233l-.5 1.5-1.5 2.5.5-1.5 1.5-2.5ZM519.5 233q5.8-.7 6.5 3.5l-3.5-2.5-4 1 1-2ZM407.5 235l-1 2 1-2ZM496.5 235l-.5 1.5-1.5 2.5.5-1.5 1.5-2.5ZM405.5 238l2.5.5-2.5.5v-1ZM526.5 238l.5 3.5h-1l.5-3.5ZM383.5 239l5.5.5-5.5.5v-1ZM477.5 240l-1 2 1-2ZM493.5 240l.5 1.5-2 1 1.5-2.5ZM420.5 241l1.5 2.5h-1l-.5-2.5ZM514.5 243l.5 3.5h-1l.5-3.5ZM369.5 244l1 2-1-2ZM491.5 244l-1 2 1-2ZM422.5 245l.5 2.5h-1l.5-2.5ZM523.5 245l-1 2 1-2ZM374.5 247l5.5.5-5.5.5v-1ZM398.5 248l13.5.5-13.5.5v-1ZM488.5 248l-.5 1.5-4.5 6.5-.5-1.5 5.5-6.5ZM514.5 249l.5 2 2 .5-1.5.5-1-3ZM520.5 250l-1 2 1-2ZM384.5 251l-1 2 1-2ZM471.5 251l-1 2 1-2ZM396.5 252l-1 2 1-2ZM382.5 254l-.5 1.5-1.5 2.5.5-1.5 1.5-2.5ZM469.5 254l-1 2 1-2ZM394.5 255l-1 2 1-2ZM467.5 257l.5 1.5-2.5 4.5-.5-2.5 2.5-3.5ZM482.5 257l-2 3 2-3ZM603.5 258l3.5 2.5-2.5-1.5-1-1ZM424.5 259l2.5.5-2.5.5v-1ZM552.5 259l3.5.5-6.5 2.5 1-2 2-1ZM391.5 260l-1.5 2.5-1.5 2.5.5-1.5 2.5-3.5ZM507.5 260l5.5 2.5-1.5-.5-4-1v-1ZM557.5 260l1 2-1-2ZM339.5 261l3.5 1.5-1.5-.5q-3 .5-2-1ZM420.5 261l-4 5 4-5ZM430.5 261l4 5-4-5ZM479.5 261l-2 3 2-3ZM337.5 262l-5 6 5-6ZM560.5 262l2 3-2-3ZM596.5 262l-1 2 1-2ZM314.5 263l4.5.5-4.5.5-6 6 6-7ZM504.5 263l.5 1.5-3.5 5.5.5-1.5 2.5-5.5ZM609.5 263l1 2 1.5-.5-4.5 3.5 1.5-2.5.5-2.5ZM622.5 263l4.5 5.5h-1l-3.5-5.5ZM320.5 264l2 3-2-3ZM464.5 264l-.5 1.5-.5 1.5-.5-1.5 1.5-1.5ZM345.5 265l1.5 2.5h-1l-.5-2.5ZM475.5 265l-1 2 1-2ZM544.5 265l-6 7 6-7ZM594.5 265l-1 2 1-2ZM375.5 266l-1 2 1-2ZM514.5 266l.5 2.5h-1l.5-2.5ZM564.5 268l1.5 2.5h-1l-.5-2.5ZM592.5 268l-.5 1.5-1.5 2.5.5-1.5 1.5-2.5ZM346.5 269l.5 1.5-4 3 3.5-4.5ZM385.5 270l-1 2 1-2ZM426.5 270l1.5.5-6.5 6.5-1.5-1.5q2.5-4.8 5-3l1.5-2.5ZM472.5 270l-.5 1.5-.5 1.5-.5-1.5 1.5-1.5ZM513.5 270l-2 3 2-3ZM627.5 270l.5 3.5h-1l.5-3.5ZM372.5 271l-.5 1.5-1.5 2.5.5-1.5 1.5-2.5ZM553.5 271l-1 4q-1.7-2.8-3.5 1.5l-.5 1.5-.5-1.5 5.5-5.5ZM306.5 272l-1 2 1-2ZM409.5 272l-2 3 2-3ZM619.5 272l3.5 5.5-4-3 .5-2.5ZM383.5 273l-.5 1.5-.5 1.5-.5-1.5 1.5-1.5ZM537.5 273l-2 3 2-3ZM589.5 273l-.5 1.5-1.5 2.5.5-1.5 1.5-2.5ZM615.5 273l-4 5 4-5ZM304.5 275l-3 4 3-4ZM342.5 275l-1 2 1-2ZM626.5 275l.5 1.5-2.5 1.5v-1q2.5.7 2-2ZM369.5 276l-4 5 4-5ZM406.5 276l-1 2 1-2ZM436.5 276l-3 4 3-4ZM315.5 277l-2 3 2-3ZM319.5 277l.5 2.5-11.5 12.5 5.5-6.5 5.5-8.5ZM497.5 277l.5 1.5-3 2 2.5-3.5ZM534.5 277l-4 5 4-5ZM564.5 277l-4 5-4 3 3-4 5-4ZM609.5 278l-10 11 10-11ZM380.5 279l-1 2 1-2ZM403.5 279l-6 7 6-7ZM300.5 280l-2 3 2-3ZM339.5 280l.5 1.5-1.5 2.5-.5-1.5 1.5-2.5ZM362.5 281l1.5.5-5 4-1.5 2.5-11 9 6-7 5.5-3 4.5-6ZM454.5 281l-1 2 1-2ZM493.5 281l-1 2 1-2ZM311.5 282l-2 3 2-3ZM378.5 282l.5 1.5-2 1 1.5-2.5ZM428.5 283l-3 4 3-4ZM451.5 283l-3 4 3-4ZM527.5 283l-1 2 1-2ZM580.5 283l-3 4 3-4ZM297.5 284l-1 2 1-2ZM414.5 284l-1.5 2.5-1.5 2.5.5-1.5 2.5-3.5ZM542.5 284l4.5 2.5-1.5.5-3-3ZM490.5 285l-2 3 2-3ZM524.5 285l-3 4 3-4ZM554.5 285l-2 3-4.5-.5q5 .6 6.5-2.5ZM308.5 286l-.5 1.5-1.5 2.5.5-1.5 1.5-2.5ZM376.5 286l.5 1.5-2 1 1.5-2.5ZM504.5 286l.5 2.5h-1l.5-2.5ZM325.5 287l.5 2-2-.5 1.5-1.5ZM396.5 287l-5 6 5-6ZM419.5 287l4.5.5-4.5.5v-1ZM573.5 287l-2 3 2-3ZM540.5 288l-1 2 1-2ZM294.5 289l.5 1.5-1.5 2.5-.5-1.5 1.5-2.5ZM442.5 289l-1 2-3 2 2-3 2-1ZM323.5 290q2.5 1 1.5 5.5h-1l-.5-5.5ZM464.5 290l.5 2.5h-1l.5-2.5ZM486.5 290l-2 3 2-3ZM569.5 290l-1 2 1-2ZM597.5 290l-1 2 1-2ZM305.5 291l-.5 1.5-1 3 3-1-5 4q-.7-2.2 1.5-1.5l-.5-1.5 2.5-4.5ZM454.5 291l.5 3.5h-1l.5-3.5ZM517.5 291l-2 3 2-3ZM334.5 292l.5 3.5h-1l.5-3.5ZM436.5 293l-2 3-2 1 1-2 3-2ZM451.5 293l1.5.5-3.5 2.5 2-3ZM502.5 293l.5 3.5h-1l.5-3.5ZM565.5 293l-1 2 1-2ZM595.5 293l-2.5 3.5-1.5 2.5.5-1.5 3.5-4.5ZM483.5 294l-2 3 2-3ZM292.5 295l.5 4.5h-1l.5-4.5ZM512.5 295l-2 3 2-3ZM527.5 295q3-.9 1.5 3.5h-1l-.5-2.5-1.5.5 1.5-1.5ZM537.5 295l.5 5.5h-1l.5-5.5ZM398.5 296q2.3-.7 1.5 1.5l-1.5-1.5ZM408.5 296l.5 3.5h-1l.5-3.5ZM447.5 296l-4 5-2 1 1-2 5-4ZM576.5 296l1.5.5-3 2 .5 1.5q-3.5-2 1-4ZM317.5 297l-6 7 6-7ZM359.5 297l1.5.5-2 1 .5 1.5-1-1-2.5 1.5 3.5-3.5ZM387.5 297l-8 9 8-9ZM430.5 297l-1 2 1-2ZM453.5 297l.5 10.5h-1l.5-10.5ZM491.5 297l.5 4.5h-1l-.5-1.5-3.5 2.5 4.5-5.5ZM559.5 297l-1 2-2 1 1-2 2-1ZM397.5 298l-4 5 4-5ZM333.5 299l.5 5.5h-1l.5-5.5ZM400.5 299l1.5 3.5h-1l-.5-3.5ZM479.5 299l-4 5 4-5ZM501.5 299l.5 3 5.5-3-1 2-5.5 2 .5-4ZM341.5 300l-1 2 1-2ZM370.5 300l-.5 1.5-.5 1.5-.5-1.5 1.5-1.5ZM425.5 300l-1 2 1-2ZM462.5 300l.5 3.5h-1l.5-3.5ZM521.5 300l-1 2 1-2ZM571.5 300l-1 2 1-2ZM590.5 300l-2 3 2-3ZM358.5 301l.5 2.5h-1l.5-2.5ZM324.5 302l.5 2.5h-1l.5-2.5ZM338.5 302l-1 2 1-2ZM353.5 302l-2 3 2-3ZM439.5 302l-2 3 2-3ZM538.5 302l1 2-1-2ZM568.5 302l-2 3-3 2 2-3 3-2ZM517.5 303l-4 5 4-5ZM294.5 304l1 2-1-2ZM392.5 304l-1 2 1-2ZM402.5 304l2 3-2-3ZM412.5 304l3.5.5-3.5.5v-1ZM486.5 304l-1 2 1-2ZM492.5 304l4.5 6.5-4-3-.5-3.5ZM541.5 304l3.5.5-3.5.5v-1ZM587.5 304l-1 2 1-2ZM357.5 305l.5 2.5h-1l.5-2.5ZM309.5 306l-3 4 3-4ZM434.5 306l-1 2 1-2ZM367.5 307l.5 2.5h-1l.5-2.5ZM462.5 307l.5 4 3 .5-2.5.5q-2.7-1.2-1-5ZM533.5 307l5.5 4.5-1.5.5-4-5ZM561.5 307l-1 2 1-2ZM377.5 308l-10 11 10-11ZM389.5 308l-5 6 5-6ZM470.5 308l-1 2 1-2ZM299.5 309l5.5 1.5-4.5.5-1-2ZM326.5 309l2 3-2-3ZM406.5 309l3.5 2.5-1.5.5-2-3ZM454.5 309l1.5 3.5h-1l-.5-3.5ZM510.5 309l-2 3 2-3ZM558.5 309l-2 3-1.5-.5 3.5-2.5ZM584.5 309l-.5 1.5-.5 1.5-.5-1.5 1.5-1.5ZM428.5 310l-1 2-4 1v-1l5-2ZM482.5 310l-1 2 1-2ZM343.5 311l-1 2 1-2ZM366.5 311l.5 2.5h-1l.5-2.5ZM414.5 313l7.5.5-7.5.5v-1ZM501.5 313l2.5.5-2.5.5v-1ZM542.5 313l8.5.5-8.5.5v-1ZM456.5 314l1 2-1-2ZM478.5 314l-4 5 4-5ZM582.5 314l-1 2 1-2ZM383.5 315l-5 6 5-6ZM468.5 320l2.5.5-2.5.5v-1ZM358.5 321l3 4-3-4ZM375.5 324l-2 3 2-3ZM363.5 326l1 2-1-2ZM366.5 328l3.5.5-3.5.5v-1ZM28.5 372l942.5.5-942.5.5v-1Z"/><path fill="#FEFEFE" stroke="#FEFEFE" d="m23.5 39 953.5.5-953.5.5v-1ZM20.5 40l.5 336.5h-1L20.5 40ZM978.5 40l.5 336.5h-1l.5-336.5ZM27.5 44l1.5 1.5v326l-2 1 1-1v-326l-.5-1.5ZM970.5 45l.5 326.5 1 1-2-1 .5-326.5ZM340.5 86l14.5.5-14.5.5v-1ZM407 86h7.5l1.5 1.5-1.5-.5q-5.5-1.5-7 1l-.5-2ZM101.5 87l13.5.5-13.5.5v-1ZM208.5 87l7.5.5-7.5.5v-1ZM263.5 87l44.5.5-44.5.5v-1ZM482.5 87l12.5.5-12.5.5v-1ZM588 87q8.8-2 11 3.5l-.5 1.5-3-4q-5.5-1.5-7 1l-.5-2ZM637.5 87l12.5.5-12.5.5-2 2 2-3ZM707.5 87l12.5.5-12.5.5-1 1 1-2ZM735.5 87l39.5.5-39.5.5-1.5 1.5.5 1.5-1.5-.5v103l2.5 2.5 12.5.5-12.5.5-3.5-3.5v-103l3.5-3.5ZM850 87l8 .5-7.5 1.5-.5-2ZM309.5 88l8.5 2.5-1.5.5-3-1-1.5.5.5-1.5-4 1 1-2ZM405.5 88l.5 1.5-.5 2.5q-2.7-1.2-.5-2.5l.5-1.5ZM776.5 88q10.9 2.6 16.5 10.5l5 9-2 1 1-2-4.5-6.5-1.5-.5q2.8-1.8-1.5-3.5-4.8-5.2-13-7l-1.5.5 1.5-1.5ZM217.5 89l-1 2 1-2ZM261.5 89l1 2-1-2ZM337.5 89l1.5 3.5-2-1 .5-2.5ZM357.5 89l5.5 9.5-2-1-4-7 .5-1.5ZM417.5 89l.5 2.5-2 1 1.5-3.5ZM496.5 89l1.5 1.5V184l41 .5-40.5.5-1 1-.5-95.5-.5-1.5ZM586.5 89l.5 1.5-1 2 .5 1.5-1.5-2.5 1.5-2.5ZM721.5 89l1.5 1.5v68h-1v-68l-.5-1.5ZM848.5 89l.5 1.5-1 2 .5 1.5-1.5-2.5 1.5-2.5ZM859.5 89q5 6 6.5 15.5h-1L859.5 89ZM479.5 90l.5 103.5 1 1-2-1 .5-103.5ZM652.5 90l.5 73.5 7 14.5 12.5 6h12l1.5 1.5-1.5-.5q-12.8 1.8-19-3l-1.5.5-1.5-2.5-1.5.5q-6.2-6.8-9-17l.5-73.5ZM704.5 90l.5 74.5-1 3 .5 1.5-1.5-3.5 1-1 .5-74.5ZM218.5 91l1.5 3.5h-1l-.5-3.5ZM319.5 91q13.4 5.1 21.5 15.5l9 15-2 1 1-2-8.5-12.5-1.5-.5q2.3-1.2-.5-2.5l-1.5.5q2.3-1.2-.5-2.5-1.2 2.3-2.5-.5l-3.5-4.5-3-2-1.5.5q.8-2.2-1.5-1.5l-5-3-1.5.5 1.5-1.5ZM634.5 91l.5 65.5h-1l.5-65.5ZM340.5 93l.5 2.5 3 5-2-1-3-5 1.5-1.5ZM414.5 93q2.7 1.3.5 2.5l-1.5 2.5.5-1.5 1-2-.5-1.5ZM599.5 93l4.5 11.5-2 1 1-3-4-8 .5-1.5ZM584.5 94l.5 1.5-2 4 .5 1.5-1.5-2.5 2.5-4.5ZM846.5 94l.5 1.5-13 31 .5 1.5-1.5-2.5L846.5 94ZM220.5 96l1.5 3.5h-1l-.5-3.5ZM401.5 96l-.5 1.5-1 2 .5 1.5q-2.7-1.2-.5-2.5l1.5-2.5ZM202.5 98l.5 1.5-1 2 .5 1.5-1.5-2.5 1.5-2.5ZM303.5 98l-1 2-7.5-.5 8.5-1.5Z"/><path fill="#FEFEFE" stroke="#FEFEFE" d="m750.5 98 1 1 17.5.5-18 .5v35h17.5q7.6-1.8 11.5-7.5l1.5-3.5.5 1.5-4 5 .5 1.5q-1.7-2.7-3.5 1.5l-.5 1.5h-2q-8.3 2.7-21 1l-1 1V98ZM412.5 99l.5 1.5-2 1 1.5-2.5ZM772.5 99l1 2 1.5-.5 7 10h-1l-5.5-7.5-5.5-2.5 2.5-1.5ZM304.5 100q9.9 1.1 15 7l1.5-.5 3.5 4.5q1.3-2.2 2.5.5l-1 1 2.5 3.5-8-8-11-6-5-1v-1ZM363.5 100l2.5 3.5-2-1-.5-2.5ZM581.5 101l.5 1.5-3.5 7.5-.5-1.5 3.5-7.5ZM344.5 102l2.5 3.5-2-1-.5-2.5ZM409.5 102q2.8 1.3.5 2.5l-.5 1.5-.5-1.5.5-2.5ZM200.5 103l.5 1.5-1 2 .5 1.5-1.5-2.5 1.5-2.5ZM223.5 104l1.5 3.5h-1l-.5-3.5ZM366.5 105q3 1.5 0 3v-3ZM396.5 105l-.5 1.5-3 6 .5 1.5q-2.7-1.2-.5-2.5l3.5-6.5ZM407.5 106q2.8 1.3.5 2.5l-1.5 2.5.5-1.5 1-2-.5-1.5ZM604.5 106l1.5 3.5h-1l-.5-3.5ZM866.5 106l1.5 3.5h-1l-.5-3.5ZM198.5 108l.5 1.5-1.5 2.5-.5-1.5 1.5-2.5ZM368.5 108l3.5 5.5-2 1v-2l-1.5-4.5ZM348.5 109l2.5 3.5-2-1-.5-2.5ZM798.5 109q2.5 4.5 1.5 12.5-1.4 8.6-6.5 13.5l1.5-2.5 4-11v-8l-.5-4.5ZM577.5 111l.5 1.5-1 2 .5 1.5-1.5-2.5 1.5-2.5ZM606.5 111l1.5 3.5-2 1 1-2-.5-2.5ZM868.5 111l1.5 3.5-2 1 1-2-.5-2.5ZM226.5 112l1.5 3.5h-1l-.5-3.5ZM405.5 112l.5 1.5-2 1 1.5-2.5ZM782.5 112l.5 10.5h-1l.5-10.5ZM196.5 113l.5 1.5-2 4 .5 1.5-1.5-2.5 2.5-4.5ZM209.5 113l-.5 1.5 1 3h-1l-.5-1.5-1 2-.5-1.5 2.5-3.5ZM351.5 114l1 2-1-2ZM372.5 115l4.5 6.5-2 1v-2l-2.5-5.5ZM402.5 115q2.8 1.3.5 2.5l-1.5 2.5.5-1.5 1-2-.5-1.5ZM588 115q3-1.2 2 2.5l3 7h-1l-3.5-7.5-1 2-.5-1.5 1-2.5ZM850 115q3-1.2 2 2.5l1 2h-1l-1.5-2.5-1 2-.5-1.5 1-2.5ZM390.5 116l-.5 1.5-1.5 2.5.5-1.5 1.5-2.5ZM575.5 116l.5 1.5-4 9 .5 1.5-1.5-2.5 4.5-9.5ZM608.5 116l1.5 3.5h-1l-.5-3.5ZM870.5 116l1.5 3.5-2 1 1-2-.5-2.5ZM228.5 117l1.5 3.5-2 1 1-2-.5-2.5ZM329.5 117l2.5 3.5-2-1-.5-2.5ZM353.5 117l2.5 3.5-2-1-.5-2.5ZM205.5 118l1.5 2.5-1.5 2.5-.5-1.5 1-2-.5-1.5ZM211.5 118l-.5 1.5-.5 1.5-.5-1.5 1.5-1.5ZM847.5 119l1.5 2.5-3.5 7.5-.5-1.5 3-7-.5-1.5ZM193.5 120l.5 1.5-1.5 2.5-.5-1.5 1.5-2.5ZM586.5 120l.5 1.5-3.5 7.5-.5-1.5 3.5-7.5ZM212.5 121l-.5 1.5 1 3h-1l-1-3 1.5-1.5ZM333.5 121l-1 2 1-2ZM357.5 121l-1 2 1-2ZM387.5 121l1 2-1-2ZM400.5 121l.5 1.5-3.5 5.5.5-1.5 2.5-5.5ZM610.5 121l7.5 19.5h-1l-6.5-19.5ZM853.5 121l4.5 11.5h-1l-3.5-11.5ZM872.5 121l3.5 9.5h-1l-2.5-9.5ZM230.5 122l1.5 3.5-2 1 1-2-.5-2.5ZM350.5 123l.5 1.5-2 1 1.5-2.5ZM358.5 123l.5 2.5 3 5-2-1-3-5 1.5-1.5ZM377.5 123l2.5 3.5-2 1v-2l-.5-2.5ZM204.5 124l.5 1.5-1.5 2.5-.5-1.5 1.5-2.5ZM213.5 127l1.5 3.5h-1l-.5-3.5ZM232.5 127l1.5 3.5-2 1 1-2-.5-2.5ZM384.5 127l-.5 1.5-1.5 3.5-1-2q2.3.8 1.5-1.5l1.5-1.5ZM190.5 128l1 2-1-2ZM201.5 128l1.5 2.5-1.5 2.5-.5-1.5 1-2-.5-1.5ZM336.5 128l-.5 1.5-.5 2.5-.5-2.5 1.5-1.5ZM395.5 128q2.7 1.3.5 2.5l-3.5 6.5.5-1.5 3-6-.5-1.5ZM832.5 128l1.5 2.5-2-1 .5-1.5ZM352.5 129l.5 3.5-2 1 1.5-4.5ZM581.5 129l1.5 2.5-2.5 4.5-.5-1.5 2-4-.5-1.5ZM594.5 129l1.5 3.5h-1l-.5-3.5ZM843.5 129l1.5 2.5-8.5 19.5-.5-1.5 3-7-.5-1.5 1.5.5 2-6-.5-1.5q2.3.8 1.5-1.5l1-2-.5-1.5ZM189.5 130l.5 1.5-1 2 .5 1.5-1.5-2.5 1.5-2.5ZM569.5 131l.5 1.5-1.5 2.5-.5-1.5 1.5-2.5ZM831.5 131l.5 1.5-4 9 .5 1.5-1.5-2.5 4.5-9.5ZM337.5 132l-.5 1.5-.5 4.5-.5-4.5 1.5-1.5ZM362.5 132l3 4 1.5.5v2l2.5 4.5 1.5.5-2 1-6.5-12.5ZM876.5 132l7.5 18.5h-1l-7-17 .5-1.5ZM199.5 133l1 2-1-2ZM597.5 133l-.5 1.5 1 3h-1l-1-3 1.5-1.5ZM859.5 133l-.5 1.5 4.5 12.5 1.5-.5-1 2 1 2h-1l-6-16 1.5-1.5ZM353.5 134l.5 14.5h-1l.5-14.5ZM187.5 135l.5 1.5-1.5 2.5-.5-1.5 1.5-2.5ZM216.5 135l3.5 8.5h-1l-2.5-8.5ZM235.5 135l1.5 3.5h-1l-.5-3.5ZM791.5 135l1.5 1.5-5.5 5.5-6.5 3.5q9.5 6.5 15 17l-2-1-2.5-3.5-1.5-.5 1-1-9.5-9.5-1.5.5-1-2 9-6 3.5-4.5ZM199.5 136l.5 1.5-1.5 2.5-.5-1.5 1.5-2.5ZM567.5 136l1 2-1-2ZM390.5 137q2.8 1.3.5 2.5l-2.5 5.5-.5-1.5 3-5-.5-1.5ZM579.5 137l.5 1.5-1.5 2.5-.5-1.5 1.5-2.5ZM566.5 138l.5 1.5-1 2 .5 1.5-1.5-2.5 1.5-2.5ZM599.5 138l-.5 1.5 2 6h-1l-2-6 1.5-1.5ZM338.5 139l.5 5.5h-1l.5-5.5ZM185.5 140l1 2-1-2ZM196.5 140l1.5 2.5-1.5 2.5-.5-1.5 1-2-.5-1.5ZM576.5 141l1.5 2.5-2.5 4.5-.5-1.5 2-4-.5-1.5ZM184.5 142l.5 1.5-1.5 2.5-.5-1.5 1.5-2.5ZM618.5 142l1.5 3.5h-1l-.5-3.5ZM238.5 143l1.5 3.5h-1l-.5-3.5ZM564.5 143l.5 1.5-1.5 2.5-.5-1.5 1.5-2.5ZM826.5 143l.5 1.5-2.5 4.5-.5-1.5 2.5-4.5ZM221.5 144l-.5 1.5 2 6h-1l-2-6 1.5-1.5ZM194.5 145l1.5 2.5-3.5 7.5-.5-1.5 3-7-.5-1.5ZM371.5 145l.5 47.5-1.5 2.5-.5-1.5 1-1 .5-47.5ZM386.5 145l.5 47.5h-1l.5-47.5ZM602.5 146l-.5 1.5 1 3h-1l-1-3 1.5-1.5ZM750.5 146l14 3 6 5h2.5l11 17.5 2 9h-1l-2-9-9.5-14.5-12-8-10.5-1-.5 46v-48ZM336.5 147l1.5 4.5-2-1 .5-3.5ZM620.5 147l1.5 3.5-2 1 1-2-.5-2.5ZM562.5 148l1 2-1-2ZM181.5 149l.5 2.5-1.5 2.5-.5-1.5 1.5-3.5ZM351.5 150q2.3.8 1.5 4.5h-1l-.5-4.5ZM561.5 150l.5 1.5-5 12 .5 1.5-1.5-2.5 5.5-12.5ZM823.5 150l.5 1.5-4.5 10.5-.5-1.5 4.5-10.5ZM572.5 151l1.5 2.5-4.5 9.5-.5-1.5 4-9-.5-1.5ZM866.5 151l-.5 1.5 1 3h-1l-1-3 1.5-1.5ZM224.5 152l-.5 1.5 1 3h-1l-1-3 1.5-1.5ZM335.5 152l.5 2.5-1.5 3.5-.5-2.5 1.5-3.5ZM603.5 152l1.5 3.5h-1l-.5-3.5ZM622.5 152l2.5 6.5-2 1 1-2-1.5-5.5ZM835.5 152l.5 1.5-2.5 4.5-.5-1.5 2.5-4.5ZM884.5 152l6.5 16.5-2 1 1-2-5-11-.5-4.5ZM242.5 153l1.5 3.5-2 1 1-2-.5-2.5ZM179.5 155l1 2-1-2ZM606.5 156l-.5 1.5 3 8h-1l-3-8 1.5-1.5ZM868.5 156l-.5 1.5 1 3h-1l-1-3 1.5-1.5ZM178.5 157l.5 1.5-4 9 .5 1.5-1.5-2.5 4.5-9.5ZM226.5 157l-1 2 1-2ZM636.5 157l-.5 1.5 1 7h-1l-1-7 1.5-1.5ZM190.5 158l.5 1.5-1.5 2.5-.5-1.5 1.5-2.5ZM349.5 158l1.5 2.5h-1l-.5-2.5ZM832.5 159l.5 1.5-1.5 2.5-.5-1.5 1.5-2.5ZM625.5 160l1.5 3.5-2 1 1-2-.5-2.5ZM721.5 160l.5 3.5-1.5 3.5-.5-2.5 1.5-4.5ZM245.5 161l2.5 6.5h-1l-1.5-6.5ZM348.5 161l1.5 2.5-2 1 1-2-.5-1.5ZM228.5 162l-.5 1.5 1 3h-1l-1-3 1.5-1.5ZM869.5 162l1.5 3.5h-1l-.5-3.5ZM188.5 163l.5 1.5-2.5 4.5-.5-1.5 2.5-4.5ZM331.5 163l-.5 1.5-1.5 2.5.5-1.5 1.5-2.5ZM567.5 163l1.5 2.5-2.5 4.5-.5-1.5 2-4-.5-1.5ZM818.5 163l1 2-1-2ZM829.5 163l1.5 2.5-2.5 4.5-.5-1.5 2-4-.5-1.5ZM796.5 164l1.5 2.5h-1l-.5-2.5ZM555.5 165l.5 1.5-4 9 .5 1.5-1.5-2.5 4.5-9.5ZM627.5 165l3.5 8.5-2 1 1-2-1.5-3.5-1.5.5 1-2-.5-2.5ZM817.5 165l.5 1.5-8 19 .5 1.5-1.5-2.5 8.5-19.5ZM872.5 166l-.5 1.5-.5 1.5-.5-1.5 1.5-1.5ZM230.5 167l-.5 1.5 2 6h-1l-2-6 1.5-1.5ZM345.5 167q2.8 1.3.5 2.5L335.5 183q-9.7 9.8-26 13l-1-2 3.5 1 .5-2 3 1 2.5-1 .5-2 1.5.5.5-1.5h2q2.3.8 1.5-1.5l2.5-.5 7.5-5.5 3.5-4.5 1.5.5 7-10-.5-1.5ZM637.5 167l2.5 5.5-2-1-.5-4.5ZM718.5 167l1.5 2.5-3.5 5.5.5-1.5 2-5-.5-1.5ZM798.5 168l-1 2 1-2ZM173.5 169l.5 1.5-1.5 2.5-.5-1.5 1.5-2.5ZM248.5 169l-1 2 1-2ZM327.5 169l-6.5 7.5-.5 1.5q-1.5-2.5-3 1-4.2 3.8-11.5 4.5l.5 1.5-4.5-1.5q17-3 25.5-14.5ZM702.5 169l.5 1.5-3 4 .5 1.5-5.5 4.5-.5 1.5q-1.5-2.5-3 1l-3 2-2.5-1.5q7.6-1.9 12-7l4.5-7.5ZM610.5 170l5.5 13.5h-1l-4.5-13.5ZM799.5 170l2.5 7.5-2 1 1-3-1.5-5.5ZM872.5 170l9.5 23.5h-1l-8-19-.5-4.5ZM891.5 170l1.5 3.5-2 1 1-2-.5-2.5ZM249.5 171l1.5 3.5h-1l-.5-3.5ZM565.5 171l.5 1.5-3.5 7.5-.5-1.5 3.5-7.5ZM827.5 171l.5 2.5-5.5 11.5-.5-1.5 5.5-12.5ZM184.5 173l.5 1.5-1.5 2.5-.5-1.5 1.5-2.5ZM641.5 173l.5 2.5.5 1.5 1.5-.5q-2.7 1.8 1.5 3.5l1.5.5-1 1 4.5 4.5 1.5-.5 2.5 3.5 10 5 1.5-.5-2.5 1.5q-12-5-19.5-14.5l-4-6 1.5-1.5ZM171.5 174l.5 1.5-1 2 .5 1.5-1.5-2.5 1.5-2.5ZM233.5 175l-.5 1.5 1 3h-1l-1-3 1.5-1.5ZM631.5 175l2.5 6.5-2 1 1-2-1.5-5.5ZM714.5 175q3.3 1.8-.5 3.5l-9.5 10.5q-6.8 5.7-17 8h-18l-3.5-1.5 2.5-.5 1 1H688l.5-2 2 1 3.5-1 .5-2h2l7.5-4.5.5-1.5 1 1 7.5-7.5 2-3-.5-1.5ZM893.5 175l4.5 11.5-2 1 1-2-3.5-10.5ZM251.5 176l1.5 3.5-2 1 1-2-.5-2.5ZM169.5 179l.5 1.5-1.5 2.5-.5-1.5 1.5-2.5ZM802.5 179l.5 4.5-2 1 1.5-5.5ZM235.5 180l-.5 1.5 1 3h-1l-1-3 1.5-1.5ZM549.5 180l.5 1.5-2 4 .5 1.5-1.5-2.5 2.5-4.5ZM253.5 181l.5 1.5-2 1 1.5-2.5ZM561.5 181l.5 1.5-1.5 2.5-.5-1.5 1.5-2.5ZM787.5 181l-.5 1.5v10l1 1-2-1v-10l1.5-1.5ZM634.5 183l1.5 3.5-2 1 1-2-.5-2.5ZM117.5 184h41l1.5 1.5-1.5-.5h-41v-1ZM178.5 184l1.5 2.5-1.5 2.5-.5-1.5 1-2-.5-1.5ZM254.5 184l1.5 3.5-2 1 1-2-.5-2.5ZM278.5 184l22.5.5-22.5.5v-1ZM237.5 185l-.5 1.5 1 3h-1l-1-3 1.5-1.5ZM616.5 185l1.5 3.5h-1l-.5-3.5ZM820.5 185l1.5 2.5-3.5 6.5.5-1.5 2-6-.5-1.5ZM166.5 186l.5 1.5-1 2 .5 1.5-1.5-2.5 1.5-2.5ZM803.5 186l.5 7.5h-1l.5-7.5ZM161.5 187l.5 6.5-2 1 1.5-7.5ZM541.5 187l.5 6.5h-1l.5-6.5ZM546.5 187l.5 1.5-1.5 2.5-.5-1.5 1.5-2.5ZM808.5 187l.5 1.5-1 2 .5 1.5-1.5-.5 1.5 3.5 7.5 1.5-6.5.5q-4-.5-3.5-5.5l2.5-4.5ZM558.5 188l.5 1.5-1.5 2.5-.5-1.5 1.5-2.5ZM636.5 188l1.5 5.5h-1l-.5-5.5ZM898.5 188l1.5 5.5h-1l-.5-5.5ZM256.5 189l1.5 4.5h-1l-.5-4.5ZM618.5 190l1.5 3.5-2-1 .5-2.5ZM164.5 191l.5 2.5h-1l.5-2.5ZM238.5 191l1.5 3.5h-1l-.5-3.5ZM554.5 194l.5 1.5q-1.5 3-7.5 1.5l-1-2 1 1h6.5l.5-2ZM621.5 194l.5 2h12.5l.5-1.5h1l-1.5 2.5h-12l-1.5-1.5.5-1.5ZM789.5 194l.5 2h10.5l1-1-1 2h-11v-3ZM883.5 194l.5 2h12.5l.5-1.5h1l-1.5 2.5h-13v-3ZM166.5 195l7.5 1.5-6.5.5-1-2ZM241.5 195l1 1h12l1.5-.5-1.5 1.5h-12l-1-2ZM385.5 195l.5 2-14-.5 12.5-.5 1-1ZM101.5 196l57.5.5-57.5.5v-1ZM263.5 196l42.5.5-42.5.5v-1ZM482.5 196l56.5.5-56.5.5v-1ZM416.5 201h3l4.5 3 2 3.5-2 1 1-1-5.5-5.5q-3.7-.7-4.5 1.5l.5 1.5q-3.5-2 1-4ZM502.5 201q5.8-.7 6.5 3.5l-2 1q2.3-1.2-.5-2.5l-4.5-1-.5 2-1-1-4.5 4.5-2 3 .5 1.5q-3.2-1.7.5-3.5l5.5-6.5 2-1ZM413.5 205l-.5 1.5-8 11 .5 1.5q-2.7-1.2-.5-2.5l8.5-11.5ZM510.5 207l1.5 2.5h-1l-.5-2.5ZM426.5 209l.5 2.5-10.5 13.5 1.5-2.5 3-4-.5-1.5 4.5-3.5 1.5-4.5ZM509.5 210l1.5 3.5-1.5 2.5-.5-1.5 1-3-.5-1.5ZM492.5 212l1 2-1-2ZM491.5 214v3q-3-1.5 0-3ZM507.5 216l1.5 2.5-9.5 15.5 1.5-2.5 7-14-.5-1.5ZM489.5 217l-.5 1.5-1 2 .5 1.5q-2.8-1.2-.5-2.5l1.5-2.5ZM403.5 219l-1.5 2.5-2 3 .5 1.5q-3.2-1.7.5-3.5l2.5-3.5ZM486.5 222v3q-3-1.5 0-3ZM484.5 225l-.5 1.5-11 19 .5 1.5q-2.7-1.2-.5-2.5l11.5-19.5ZM398.5 226l-1 2 1-2ZM415.5 226l-2.5 3.5-3 6.5q6.9-1.5 10 1.5l-2 1-.5-1.5h-9l.5-1.5 6.5-9.5ZM396.5 229l-.5 1.5-2 3 .5 1.5q-3.2-1.7.5-3.5l1.5-2.5ZM519.5 231h3l5.5 5.5-5.5-4.5q-4.7-.7-5.5 2.5l-.5 1.5-.5-1.5 3.5-3.5ZM497.5 234q2.8 1.2.5 2.5l-6.5 10.5 1.5-2.5 5-9-.5-1.5ZM392.5 235l-.5 1.5-1.5 2.5q-1.5-2.5-7-1l-1.5.5q1.8-3.2 8.5-1.5l2-2ZM515.5 237l1 2-1-2ZM370.5 238l3.5.5-4 .5-.5 2-.5-1.5 1.5-1.5ZM375.5 238l2.5.5-2.5.5v-1ZM528.5 238l.5 3.5h-1l.5-3.5ZM514.5 239l.5 1.5-2.5 6.5-.5-3.5 2.5-4.5ZM421.5 240q3.6 1.9 3.5 7.5l-2 1 1-3-2.5-5.5ZM368.5 243l1 3 3 2 1.5-.5.5 1.5h9l1.5-.5-.5 2.5-1-1h-9l-7.5-5.5 1.5-1.5ZM526.5 243l.5 1.5-3 2 2.5-3.5ZM471.5 247l1 2-1-2ZM489.5 247q3 1.5 0 3v-3ZM522.5 247q2.8 1.3.5 2.5l-3.5 4.5q-3.7.8-4.5-1.5l1.5.5q4.8.8 5.5-2.5l1-2-.5-1.5ZM421.5 249l.5 1.5q-.7 2.3-4.5 1.5v-1q4.5 1.3 4-2ZM470.5 249l.5 1.5q-3.1 1.7-1.5 3.5-3.2-1.7.5-3.5l.5-1.5ZM399.5 250l15.5.5-16 .5-7.5 12 1.5-2.5 1-2-.5-1.5 2.5-1.5-.5-1.5 2.5-1.5 1.5-2.5ZM382.5 251v3l-2 1 .5-1.5 1.5-2.5ZM488.5 251l-2.5 3.5q-3.4 8.1-10 13l-4.5 9.5-.5-1.5 6-10-.5-1.5 1 1 3.5-3.5 7.5-10.5ZM467.5 254l-.5 1.5-3.5 7.5-.5-2.5 4.5-6.5ZM379.5 256l-.5 1.5-4 7 .5 1.5q-2.7-1.2-.5-2.5l4.5-7.5ZM600.5 256h3l6.5 4.5-2 1-2.5-3.5-5-1-2 3-.5-3 2.5-1ZM423.5 257h4l8.5 7.5-4.5-3.5-7.5-3-.5 2-1.5-.5-.5 1.5-1-1-5.5 5.5-3.5 4.5-5.5 4.5-2 3 .5 1.5h-2l-6.5 6.5-6 7q2.2 1.3-.5 2.5l-.5-2.5 6-6 18.5-21.5 10-8ZM552.5 257l5 1 7.5 6.5 2 4-2-1-4.5-6.5q-1.9-3.6-8-3l-3.5 2-2.5 4-1-1-8.5 8.5-8.5 11.5-1-1-3 3-5.5 4.5-.5 1.5-1-1-5 5-3.5 2.5-.5 1.5q-1.5-2.5-3 1l-2 1-.5-2.5 1.5.5 28.5-22.5q5.7-10.8 15.5-17.5l4-2ZM507.5 258l1.5.5-2 .5-.5 2-1-2 2-1ZM338.5 259h3l4.5 3-.5 3-4-5q-3.3-1.1-2.5 1.5l-1.5-.5-7 7-1.5-.5 9.5-8.5ZM510.5 259l4.5 3.5 1 2-2-1-2.5-3.5-1-1ZM596.5 259l.5 1.5q-4.2 2.2-2.5 4.5-3.8-2.3 1.5-4.5l.5-1.5ZM615.5 260l7 1 6.5 6.5-1.5 2.5.5-1.5-5.5-6.5-1.5.5q.6-2.7-5.5-1.5l-4 3-.5-2 4.5-2ZM314.5 261h4l7.5 5.5-2 1-3.5-4.5-1.5.5q.9-3-3.5-1.5l-8.5 7.5q2.3 1.2-.5 2.5l-1.5-1.5 9.5-9.5ZM390.5 264l-.5 1.5-1.5 3.5-.5-1.5 2.5-3.5ZM462.5 264l-.5 1.5-1.5 3.5.5-1.5 1.5-3.5ZM502.5 264l-.5 1.5-.5 1.5-.5-1.5 1.5-1.5ZM347.5 265q2.5 1 1.5 5.5h-1l-.5-5.5ZM592.5 265l-.5 1.5-1.5 2.5.5-1.5 1.5-2.5ZM373.5 266l-.5 1.5-2.5 4.5.5-1.5 2.5-4.5ZM436.5 266q3 1.5 0 3v-3ZM516.5 266l.5 2.5-4.5 6.5-1-2 3.5-2.5 1.5-4.5ZM326.5 268l3.5 1.5-3.5 1.5v-3ZM386.5 269q3.3 1.8-.5 3.5l-5.5 10.5-.5-1.5 7-11-.5-1.5ZM459.5 270l.5 1.5-2 5 .5 1.5-1.5.5.5 1.5q-1.5-2.5-3 1l-8 6-1.5-.5-1.5 2.5q-1.5-2.5-3 1l-11.5 7-.5 2q-1.5-2.5-3 1-2.2-.7-1.5 1.5l-1.5-.5-4.5 1-.5 2-6.5-1-2-8.5 2 1q-1.2 5.3 1.5 6.5h5l11-5 28.5-19.5 2.5-7.5ZM499.5 270l-.5 1.5-2.5 4.5.5-1.5 2.5-4.5ZM567.5 270l.5 5.5h-1l.5-5.5ZM589.5 270l-.5 1.5-5 8 .5 1.5-1.5-.5q.8 2.6-2.5 1.5l-5 5-1-1-1.5-.5 3.5-.5 8.5-7.5 4.5-7.5ZM629.5 270l.5 3.5-1.5 3.5-.5-2.5 1.5-4.5ZM304.5 272l-.5 1.5-9 12-3 8 .5 1.5-1.5-3.5q5.3-11.2 13.5-19.5ZM346.5 272l-1 2 1-2ZM369.5 273l-.5 1.5-5.5 6.5q-5-.5-5.5 3.5l-1.5 2.5-13.5 11.5-.5 1.5q-1.2-2.2-2.5.5l-.5 1.5-1-1-3.5 2.5q1.5-5.5-1-7l2 1 .5 4.5 7.5-5q-1.1-2.7 1.5-2l22.5-19.5 1.5-2.5ZM617.5 273l.5 1.5-17 15-.5 1.5-.5-1.5 10.5-11.5 1 1 6-6ZM317.5 275l.5 4.5-6 5 1 1-5.5 5.5 1.5-2.5 4-6-.5-1.5 1.5.5 3-4q-2.2-1.2.5-2.5ZM344.5 275l-1.5 2.5-1.5 3.5-.5-1.5 3.5-4.5Z"/><path fill="#FEFEFE" stroke="#FEFEFE" d="m438.5 275 .5 1.5-3 4.5q-3.7-1.5-3 1.5l-7.5 6.5-6 1-5.5-3.5 2-1q-.7 2.3 1.5 1.5 1.4 3.3 6.5 2l.5-2 1 1 3.5-3.5V283q3.7 1.5 3-1.5l6-5 .5-1.5ZM510.5 275q2.8 1.3.5 2.5l-1.5 3.5-.5-1.5 2-3-.5-1.5ZM619.5 276q.7 3.7 6 3l1.5-.5q-.7 2.3-4.5 1.5l-3-4ZM469.5 277l1.5 2.5-2 3-2.5 10.5-.5-3.5 1-3-.5-1.5 1.5.5 2-7-.5-1.5ZM495.5 277l.5 1.5-1.5 2.5q-1.8-2.7-3.5 1.5l.5 1.5-4.5 3.5.5 1.5-1.5-1.5 4-4 3.5-4.5q2.5.7 2-2ZM566.5 277l-6 7-8 6h-4l-5-3-3 6-.5-2.5 3-4-.5-1.5 6 4h4l14-12ZM507.5 281l1 2-1-2ZM340.5 282l.5 1.5-4.5 11.5-.5-3.5 4.5-9.5ZM506.5 283l1 2-1-2ZM377.5 285l1 2-1-2ZM505.5 285l1.5 3.5-2.5 7.5-.5-3.5 2-6-.5-1.5ZM571.5 287l-1 2-2.5 1.5-1.5 2.5q-1.2-2.2-2.5.5l-.5 1.5q-1.2-2.2-2.5.5l-.5 1.5q-1.5-2.5-3 1-2.2-.7-1.5 1.5h-2l-.5 1.5h-2l-3 2-1-2 8-3 16-11ZM377.5 288l-.5 1.5-.5 1.5-.5-1.5 1.5-1.5ZM413.5 288l-.5 1.5-1.5 4.5-.5-2.5 2.5-3.5ZM485.5 289l-2 3 2-3ZM598.5 290l.5 3-2-.5 1.5-2.5ZM374.5 291l1.5 2.5h-1l-.5-2.5ZM322.5 292l.5 11.5h-1l-.5-8.5-15 17-6 1-3.5-2q-1-3 2-2l1.5 3q5.4 1.9 4.5-1.5l1.5.5 4.5-4.5-.5-1.5 8.5-7.5 1-2-.5-1.5 1.5.5 1.5-2.5ZM464.5 293l1.5 3.5h-1l-.5-3.5ZM482.5 293l-2.5 3.5.5 1.5-6.5 5.5q2.3 1.3-.5 2.5-2.2-.7-1.5 1.5-2.3-1.8-4.5 2.5l-3.5 1 .5-3 2 1 11.5-10.5 4.5-5.5ZM538.5 293q3 1.5 1.5 7.5l-2 1q2.5-1.5 1-7l-.5-1.5ZM387.5 294l.5 1.5-10 10 .5 1.5-11 10 1.5-2.5-1-1 .5-3.5 1 4 5.5-7q2.7 1.1 2-1.5l10.5-11.5ZM452.5 294l.5 2-4.5 2-19 15q-4.8 4.2-15 3v-1h7l.5-1.5 1.5.5 5.5-2q-1.2-3 2.5-2l8.5-6.5.5-1.5q1.5 2.5 3-1l9-7ZM596.5 294l-1.5 2.5-2.5 3.5 1.5-2.5 2.5-3.5ZM290.5 295l1.5 7.5h-1l-.5-7.5ZM463.5 297q2.5 1 1.5 5.5h-1l-.5-5.5ZM525 297q2.7-1.1 2 1.5l2 4h-1l-1.5-3.5-7.5 5q1.1 2.7-1.5 2l-6.5 5.5q.8 2.3-1.5 1.5-1.2 2.3-2.5-.5 2.5 1.8 5-3l.5-1.5 1 1 5.5-5.5.5-1.5 1 1 4.5-4.5V297ZM451.5 298l.5 8.5h-1l.5-8.5ZM372.5 299l.5 1.5-3.5 8.5-.5-2.5 3.5-7.5ZM398.5 299l6 10 1.5-.5q-2.7 1.8 1.5 3.5l2 1 1.5-.5q-.7 2.3 1.5 1.5l1.5-.5-2.5 1.5q-6.1-1.4-8.5-6.5l-4-7.5-4 2.5-15.5 18.5 5.5-6.5 13.5-16.5ZM573.5 299l.5 1.5-2.5 5.5-.5-2-17.5 11-11 1-2.5-1.5 1.5-.5 1 1h8l3.5-1 .5-2h2l5.5-3 .5-2 1 1 3-3 2.5-1.5.5-1.5q1.8 2.8 3.5-1.5l.5-1.5ZM355.5 301l1.5 3.5-1.5 6.5-.5-5.5.5-1.5-3.5 2.5-3.5 4.5-10 6h-5v-1h5l5.5-3 .5-2q1.2 2.3 2.5-.5l1.5-2.5 1.5.5 1-3.5 4-2.5.5-1.5ZM591.5 301l-1.5 2.5-4.5 7.5.5-1.5 5.5-8.5ZM489.5 302q3-.9 1.5 3.5l.5 1.5-2-4-3 5-.5-1.5 3.5-4.5ZM540.5 302q5.3-1.2 6.5 1.5l-1.5-.5-4 1-1-2ZM530.5 303l.5 2.5.5 1.5 1.5-.5-1 1 5.5 5.5 2-1-1 2-8.5-7.5-1-2 1.5-1.5ZM292.5 304l2 3-2-3ZM462.5 304l1.5 2.5h-1l-.5-2.5ZM296.5 307l-1 2 1-2ZM570.5 307q2.8 1.2.5 2.5l1 2-2-1 1-2-.5-1.5ZM324.5 308l3.5 4.5-4-3 .5-1.5ZM452.5 308l5.5 10.5h-1l-5-8 .5-2.5ZM492.5 308l2 3-2-3ZM484.5 310l-2 3 2-3ZM496.5 311l1.5 3 5.5 1 3-1v1l-5 1-6.5-3.5 1.5-1.5ZM356.5 312l.5 2.5-1 5 8.5 9.5 1.5-.5v1.5h4l.5-2 1.5.5q-.8-2.6 2.5-1.5 3.7-2 2-4l2.5.5-8.5 7.5h-4l-10.5-9.5-1-6 1.5-3.5ZM573.5 312l4 5q5.5 1 6.5-2.5l.5-2.5.5 2.5q-1 4.5-7.5 3.5l-5.5-4.5 1.5-1.5ZM329.5 314l2.5 1.5-1.5.5-1-2ZM479 314l3 .5-11.5 8.5h-7l-4.5-2.5 2-1 .5 1.5 1.5-.5.5 1.5h7.5l.5-2q1.5 2.5 3-1l4.5-3.5V314ZM23.5 377l952.5.5-952.5.5v-1Z"/><path fill="#FFF" stroke="#FFF" d="M0 0h1000v417H0V0Zm24 39-2 2v336l2 1h952l1-1V39H24Zm-3 1-1 337h1V40Zm958 0-1 337h1V40Z"/><path fill="#FFF" stroke="#FFF" d="m27.5 45 .5 326.5h-1L27.5 45ZM29 45h941v327H29V45Zm312 41v1h14l-14-1Zm66 0v4l-24 44-28-46h-14l-2 2 1 4 26 42-1 2 2-1 3 6-1 2 2-1v49l1 2 13 1-13 1h14l1-4v-49l28-50 1-4-1-2h-7l7-1-8-1Zm-305 1v1h13l-13-1Zm107 0v1h7l-7-1Zm55 0v1h44l-44-1Zm219 0v1h12l-12-1Zm105 0v4l-42 103 2 1q5-1 7 1l34-84 2 4 31 80 1-1h12l1 1-1-8-38-97-1-2h-7l7-1-8-1Zm50 0v1h12l-12-1Zm70 0v1h12l-12-1Zm28 0v1h39l-39-1Zm114 0v4l-42 103 2 3h6l-6-1 7-1 25-60v2h1l-1-3 9-22 2 4 11 31 19 46v4h14l-13-1 13-1 1 1-1-8-3-5-2-8-33-84-1-2h-7l7-1-8-1Zm-540 1v1h3l-3-1Zm467 0v1h2l-2-1Zm-676 1v106h58q2-1 1-7l-1-2h-43V92l-1-1v-2h-14Zm108 0-43 102v3q1 2 8 1l10-22 1-5 24-57 33 85 1-1h12l1-1-39-103q-2-4-8-2Zm55 0-2 2v102l1 2h46l1-1 3 1h3l-3-1 4-2 3 1-1-1h2l4-1q2-1 0-2l5-4-2 3h2l4-6 2 1q2-1 0-2 12-11 16-30 2-29-12-42l1-2h-1l-5-4 1-2-2 1-4-3 1-1-2-2v2q-3-1-1-2l-8-5v2l-11-4h-45Zm50 0v1h2l-2-1Zm24 0-1 3h1v-3Zm80 0-1 3h1v-3Zm63 0v105l2 1h57v-7l-1-2h-41l41-1-41-1V90l-1 96-1-95-1-2h-14Zm157 0-2 2v67l4 14 6 8-1-1-1 2q1 2 3 0l4 5-1 1 3 1v-2l3 2q2 1 0 3l3 1v-2l11 5h18l1 1 5-1-1-1v-1l2 1 4-1 2-4-1 2h2l2-4-1 2h2q2-1 0-2 12-10 16-27V91l-1-2h-12l-2 2v74l-3 8q-2 4-3 1l-2 3 2-1-4 5v-1l-1-1-2 4v-2l-4 1v2l-4 2q-12 2-18-2l-1-3-2 1q-3-1-1-2l-2-2v2q-7-6-10-16V91l-1-2h-12Zm98 0-2 2v103l2 1h13l1-49 1 48v-46h8l-7-1v-1q8-1 12 3l-2 1 4 1v-2q2 1 0 3l3 1v-2q4 2 1 4l4 2v-2q7 7 11 17l3 11q-1 9 1 14h12l-11-1 11-1 1-1-1-15-6-15-4-5h2v-1q-1-3-2-1l-10-9 1-1-2-2v2l-2-1 6-4-1 2h2l3-5-2 3h2l3-3-1-1h2q2-1 0-2l6-14-1-13-5-8 1-2h-1q-5-2-2-3l-3-3 1 3q-5-2-2-3l-2-2v2l-8-4h-40Zm-256 1-1 104h1V90Zm173 0-1 74h1V90Zm52 0-1 75h1V90Zm18 0-1 69h1V90Zm10 0-1 104h1V90Zm-98 1-1 66h1V91Zm227 1v5h1l-1-5Zm-260 5-1 3h1v-3Zm262 0-1 3h1v-3Zm-19 1-1 3h1v-3Zm-241 4-1 3h1v-3Zm262 0-1 3h1v-3Zm-285 1-1 3h1v-3Zm262 0-1 3h1v-3Zm24 3v4h1l-1-4Zm-26 2-1 3h1v-3Zm-42 1-1 4h1v-4Zm1 4-1 9h1v-9Zm39 0-1 3h1v-3Zm-251 2v2l2 1q1-4-2-3Zm262 0v2l2 1q1-4-2-3Zm-259 3-1 3h1v-3Zm-17 2-1 3h1v-3Zm262 0-1 3h1v-3Zm-37 2-1 4h1v-4Zm-187 1-1 3h1v-3Zm243 0-1 3h1v-3Zm19 0-1 3h1v-3Zm-289 1-1 3h1v-3Zm262 0-1 3h1v-3Zm-49 2-1 3h1v-3Zm-184 2-1 3h1v-3Zm243 0-1 3h1v-3Zm19 0-1 3h1v-3Zm-523 1-1 4h1v-4Zm29 1 1 2q1-3-1-2Zm233 1-1 3h1v-3Zm-261 3-1 15h1v-15Zm476 1-1 3h1v-3Zm-213 1-1 3h1v-3Zm262 0-1 3h1v-3Zm-18 2-1 3h1v-3Zm-642 1-1 3h1v-3Zm622 0-1 3h1v-3Zm-241 2-1 3h1v-3Zm262 0-1 3h1v-3Zm19 0-1 3h1v-3Zm-18 3-1 3h1v-3Zm-25 2-1 3h1v-3Zm45 0-1 3h1v-3Zm-661 1-1 3h1v-3Zm-27 1-1 3h1v-3Zm565 0v1h2l-2-1Zm-578 1-1 3h1v-3Zm171 2-1 4h1v-4Zm208 1-1 3h1v-3Zm262 0-1 3h1v-3Zm-199 2-1 3h1v-3Zm262 0-1 3h1v-3Zm-314 2-1 3h1v-3Zm-13 1-1 3h1v-3Zm262 0-1 3h1v-3Zm-185 1-1 5h1v-5Zm-29 1-1 3h1v-3Zm281 0-1 3h1v-3Zm-166 1-1 4h1v-4Zm-545 1-1 3h1v-3Zm460 2-1 3h1v-3Zm17 1-1 4h1v-4Zm67 0-1 3h1v-3Zm169 0-1 3h1v-3Zm-642 1-1 3h1v-3Zm456 0-1 3h1v-3Zm-150 4-1 3h1v-3Zm76 0-1 3h1v-3Zm9 0-1 3h1v-3Zm177 0-1 3h1v-3Zm-585 1-1 3h1v-3Zm553 1-1 3h1v-3Zm44 0-1 3h1v-3Zm-216 1-1 3h1v-3Zm189 0-1 3h1v-3Zm73 0-1 3h1v-3Zm-309 1-1 3h1v-3Zm220 1-1 3h1v-3Zm29 0-1 3h1v-3Zm-12 1-1 3h1v-3Zm-188 2-1 3h1v-3Zm19 0-1 3h1v-3Zm153 0-1 4h1v-4Zm90 0-1 3h1v-3Zm19 0-1 3h1v-3Zm-70 1-1 3h1v-3Zm-22 1-1 5h1v-5Zm9 0-1 3h1v-3Zm-262 1-2 2 1 2 1-2v-2Zm346 0-1 3h1v-3Zm-229 2v1h2l-2-1Zm120 0-1 11h1v-11Zm91 0-1 3h1v-3Zm-208 1v1h2l-2-1Zm-552 1v1h41l-41-1Zm555 0v1h12l-12-1Zm131 2-1 8h1v-8Zm-642 1-1 7h1v-7Zm380 0-1 7h1v-7Zm338 0-1 3h1v-3Zm-261 3-1 3h1v-3Zm19 0-1 4h1v-4Zm182 0-1 3h1v-3Zm80 0-1 4h1v-4Zm-735 1-1 3h1v-3Zm93 0-1 3h1v-3Zm549 0-1 3h1v-3Zm-497 4v1h2l-2-1Zm357 0v1h2l-2-1Zm-565 1v1h57l-57-1Zm66 0v1h6l-6-1Zm75 0v1h12l-12-1Zm21 0v1h42l-42-1Zm219 0v1h56l-56-1Zm65 0v1h6l-6-1Zm75 0v1h12l-12-1Zm47 0v1h18l-18-1Zm66 0v1h12l-12-1Zm-319 5v1h3l-3-1Zm86 0q-1 2 2 1v1l-4-1v2l-7 8-21 35-1 4-7 10v3l-6 13-1-2-1 3q3 1-1 3v-1l-1-1-2 4v-1l-1-1q-3 1-1 3l-3 3v-1l-2-1v2l-2-1-2 4-2-1v2l-5 4v-1l-1-1-2 4v-1l-1-1-1 3-2-1-1 3v-2l-6 3 2 1-2 1-9-2-1 2 6 1h-5l-3-3q0-11 6-16l-1 2 5 2v-2l7 2q-2-2 3-5v2l3-2-2-1 2-1 1 1q-1-3 3-2v-1h-2l4-6-3-8-4-4 1-1-2-2v2l-5-2v-1l3 1h1q-1-3-5-2l-1 3-2-1v2l-5 5-2-1q-3 1-1 3-1 2-2 0l-2 3h2l-4 5q-2 4-3 1-3 1-1 3l-14 16-10 10h-2l1 2-12 11 2-12 7-17 17-30 3-1-1-2 3-1-1-2 2-5h18l6 2 1-3-3-8v-3l-2 1h-12l11-16 4-4 1 1 1-2h-2q5-2 4-8l-5-6h-3l-25 36v-3l-9 2 7 1-7 1h-12l-1-1-2 5q3 1 1 3l3 1v-2l1 3q3-2 11-1l2 1-2 3-3 1 1 2-12 21-5 5v-1l-2-1q-3 1-1 3l-3 3-1-1-4 6-2-1v2l-8 8v-1l-1-1-2 4-2-1q1 2-2 4v-1l-1-6-1 8h-1l1-13 6-14 6-7-1-9-2 1-5-2 3-1-3-1q-3 1-1 3l-6 6v-1l-1-1q-3 1-1 3h-2q-2 2-3 0l1-2-2-2v2q-5-2-3-5l-2 1h-4l4-1-4-1q-3 1-1 3l-16 19-6 12v5l5 9v2l3-1 7 2-1-1 5-5 1 1 1-2h-2l12-14q2 1 1-1h1l-1 2q-2 11 2 18l7 5q6 1 9-2v2l3-1 2-4 2 1-1-1 3-4-1 2 1 1 1-2v-2l3-3-1 2h2l1 1-1-3 4-3-2 3-2 11 2 9 7 7v1l2-1 3 1-4 1h5q2-1 0-2h2l2-1-1-1 25-30 6 12 3 3q-2 1 1 2l3-1 10 2h-7v1q7 1 11-1l-3-1 4-2v2l5-3-2-1 3-2-1 2h2q2-1 0-2l6-5 2 1 1-3-1 2h2q2-1 0-2l5-5-1 2h2l2-4v2q2 1 1-2h1l-1 4v10l6 11 1 2 2-1v2l2-1 9 1 1-3-1 2h2q2-1 0-2l4-4 2 1q2-1 0-2l2-3q-1-3 2-2v-2l6-7 1 6 4 6q-2 1 1 2l2-1 3 1 6-1 4-4 2 1-1-1 6-6 2 1-1-1 5-5-1 2h2l2-4 4 11q3 5 11 7h8l1-1 4 1v-2l2 1q-2-2 2-4l-1 2h2l1-3 2 1q-2-2 2-4l2 1 1-3 2 1-1-1q2-5 4-2v-1l2-1-5 10 2 4v2l4 2v-2l5 1 4-9 12-16-1 2h2v-3l11-11-1 2h2q2-1 0-2l6-6-2 3h2l2-4v3q1 4 7 3l2-4-1-6-5-5 1-2-7 1-3 2v-1l-2-1v3l-2-2 1-2-2-2v2q-4-2-2-4l-6 2v-1l-2-1v4l-4 4-8 14q1 2-1 1h-2l-3 2 2 1-5 4v-2l-4 1 2 1-6 4v-1l-1-1-3 5-2-1-1 3-2-1-1 3v-1l-1-1-1 3-3-1q-3 1-1 3l-3 2v-1l-2-1v2l-2 1h-4l4-1-5-1v2l-3-3q-1-12 6-16l1 3 2-1 2 1q6 1 7-3l-2 3h2l4-6-1 2h2q2-1 0-2l5-6v-6l-3-5-7-6-4 1-3-1-3 3v2q1 2-1 1l-15 17v-1l-1-1-3 5 1-2-1-1q-5 2-2 4l-4 4v-1l-1-1q-3 1-1 3l-4 4 1-2-1-1-4 6v-1l-1-1-2 4-3-2-1 3h2l-3 1 1-9 8-18h2l-1-2 3-4-2-6-7-4v2l-10 19-2-1v2q-2 3-4 2l1 2-7 9-3 3-1-1-2 3h2l-6 6-1-1-4 6v-2l-2 1-2-1-1 3-2-4 5-24 7-15 6-6 14-20v-2l9-13 7-16-2-5q-4-2-1-3-1-3-4-2Zm-80 3 1 2q1-3-1-2Zm4 5-1 3h1v-3Zm84 2-1 3h1v-3Zm9 20v1h3l-3-1Zm0 2-6 11q-1 6 2 9l4-1 7-10-1-5q-1-5-6-4Zm-110 1-1 2v1h9l-8-1v-2Zm-39 4v1h3l-3-1Zm5 0v1h2l-2-1Zm153 0-1 4h1v-4Zm-33 1-1 3h1v-3Zm-72 3-1 3h1v-3Zm89 1-1 4h1v-4Zm14 0-2 3 2-1v-2Zm-102 2-1 3h1v-3Zm-50 4v1h9l-9-1Zm25 1v1h15l-15-1Zm18 1v1h3l-3-1Zm99 2v1h3l-3-1Zm84 3v1h3l-3-1Zm-48 1v1h3l-3-1Zm-89 3-1 3h1v-3Zm152 0v1h5l-5-1Zm-154 5-1 3h1v-3Zm-113 1-1 5h1v-5Zm168 0-1 3h1v-3Zm51 4-1 6h1v-6Zm62 0-1 4h1v-4Zm-171 2-1 3h1v-3Zm170 2-1 3h1v-3Zm-6 5v1h3l-3-1Zm-154 3-1 4h1v-4Zm-130 4-1 3h1v-3Zm129 0-1 3h1v-3Zm39 0-1 3h1v-3Zm-87 3v1h4l-4-1Zm47 0-1 4h1v-4Zm39 0-1 3h1v-3Zm43 0v1h4l-4-1Zm-8 1-1 3h1v-3Zm-249 1-1 3h1v-3Zm45 0-1 4h1v-4Zm75 0-1 3h1v-3Zm-89 1-2 2q2 3 1 10h1v-12Zm182 0-1 4h1v-4Zm-39 2-1 3h1v-3Zm74 0-1 7h1v-7Zm-249 1-1 5h1v-5Zm53 0v2l2-1-2-1Zm67 0-1 6h1v-6Zm41 3-1 9h1v-9Zm13 0-1 5h1v-5Zm-66 1-2 2h2v-2Zm-107 1-1 3h1v-3Zm127 1v1h2l-2-1Zm154 0-2 2 2 1v-3Zm-83 1v4h1q1-5-1-4Zm-119 1-1 3h1v-3Zm148 1-2 2h2v-2Zm-163 1-1 6h1v-6Zm14 1-1 3h1v-3Zm5 1v2l2-1-2-1Zm78 1-1 3h1v-3Zm-84 2-1 4h1v-4Zm142 1-2 2h2v-2Zm-210 1v1h4l-4-1Zm284 0-1 3h1v-3Zm-86 2v1h2l-2-1Zm6 0v1h2l-2-1Zm47 0v1h2l-2-1Zm-196 1-1 5h1v-5Zm146 0v1h2l-2-1Zm41 0v1h8l-8-1Zm-209 1v1h5l-5-1Zm244 1v1h4l-4-1Zm-114 5v1h7l-7-1ZM971.5 45l.5 326.5h-1l.5-326.5Z"/><path fill="#FFF" stroke="#FFF" d="M277 98h25.5l9.5 3.5-2 1 7.5 3.5v-2q3.7 2 2 4l2-1q9.8 7.3 14.5 19.5 3.9 9.1 2 24-4.1 17.4-16.5 26.5v-2l-2.5 1.5q2.8 1.8-1.5 3.5l-2 1v-2l-5.5 2.5 2 1-10.5 3.5H277V98Zm19 1v1h7l-7-1Zm9 1v1h2l-2-1Zm3 1v1h2l-2-1Zm28 28-1 3h1v-3Zm1 4-1 5h1v-5Zm0 14-1 4h1v-4Zm-1 5-1 3h1v-3Zm-1 3-1 3h1v-3Zm-28 27v1h3l-3-1Zm-4 1v1h3l-3-1Zm-24 1v1h22l-22-1ZM749.5 98l.5 38.5h-1l.5-38.5ZM751.5 98h18l2.5 1.5-2 1 2.5.5 1.5-.5q-2.2 1.3.5 2.5l1.5-.5-.5-1.5q10.2 4.8 8.5 21.5-2.1 7.9-8.5 11.5v-2l-6.5 2.5 3 1-3.5 1.5h-17v-1l17.5-.5-18-.5v-35h17.5v-1h-17v-1Zm31.5 14-1 11h1v-11ZM328.5 270l-1 2 1-2ZM554.5 271l-5 6 5-6ZM424.5 272l-4 5 4-5ZM318.5 275l.5 4.5-15.5 17.5.5-1.5q4.2-11.3 12.5-18.5l1 3 1-5Zm-3.5 5-2 3h2q3-1 0-3Zm-4 5-2 3 1 1q4-2 1-4Z"/><path fill="#D17BA6" stroke="#D17BA6" d="M23 40h953v337H23V40Zm4 4v329h945V44H27Z"/><path fill="#D17BA6" stroke="#D17BA6" d="M103.5 89h10l1.5 1.5V187h43.5l.5.5v6.5h-56.5l-1.5-1.5v-102l1.5-.5 1-1ZM209.5 89q5.3-1.2 6.5 1.5l26 69 10 23 3 11.5h-13.5l-.5-2.5-32.5-81.5-34.5 84h-7v-3.5l36-86 3-10 3.5-5.5ZM264.5 89h38q1.5 2.5 7 1 18.9 4.6 29.5 17.5l10 17 2 8v19q-4.3 18.7-16.5 29.5-9.9 9.1-25 13H263V90.5l1.5-1.5Zm12.5 8v90h23l5-1q10-2 17-8 13-10 17-28 2-24-9-35-9-12-24-17l-4-1h-25ZM340 89h14.5l1.5 1.5 26.5 44.5L407 89h8v2.5l-29 53V194q-3.3 2.1-11.5 1l-2.5-1v-49.5l-30-49-2-6.5ZM483.5 89h10l1.5 1.5V187h43.5q3 1.6 1.5 7h-58V90.5l1.5-1.5ZM589.5 89q6.3-1.2 7.5 2.5l39 101-1.5 1.5H621l-31-83q-2.7-1.1-2 1.5l-25 59-3 10-6.5 12.5H547v-2.5L589.5 89ZM736.5 89h35l5 1q9.9 3.1 15.5 10.5 6.9 7.1 5 23-2.6 10.9-10.5 16.5l-9.5 4 1.5 3 12.5 11.5q6.2 7.8 9 19l1 16.5h-12v-9.5l-3-12q-4.2-10.3-11.5-17.5l-14-9h-10l-1-1-.5 47.5-2.5 2.5h-10l-1.5-1.5v-103l1.5-1.5Zm12.5 8v41q16 2 27-3 7-4 9-13 1-11-3-15l-10-9-23-1ZM851.5 89q6.3-1.2 7.5 2.5L898 194h-14.5l-.5-2.5q-17.2-39.1-31-80.5-3-1.2-2 2.5l-15 34-18 46.5h-8v-3.5l40-98 2.5-3.5ZM637 90h12.5l.5.5v70q2.5 15.5 13.5 22.5l11 4h8q11.3-2.2 17.5-9.5 5.3-5.7 7-15V90h12.5l.5.5v71q-4 17-16.5 25.5l-14 7-15 1-16-5-12.5-10.5q-6.9-7.6-9-20V90ZM416 204q6.4-1 8 4.5v4q-11.1 11.4-19 26l2.5.5q1.7-2.8 8-1l4.5 2.5q2.8 3 2 8.5l-2.5 1-8-2H398l-16 26.5-13 27-3 10v7.5h1.5l10.5-10.5 37.5-42.5 6-5 6-1 7.5 6.5q2.6 2.9 2 9l-4 5.5-8.5 6h-6l-4-3q-6.2 4.8-6.5 15.5l2 4.5 5.5 1 7-2 12-7 24.5-17.5 9-22 27-45 6.5-7.5q6.5-1 7.5 3.5v4l-6 14q-8 9-13 21l-19 25-7 19-2 10v10l3.5 1.5q9.5-4 14.5-12.5l14.5-18.5 3.5-2.5 8.5-17.5q5.1-.6 6.5 2.5l1 6-3 3-7 14-3 16.5 5.5-2 28.5-23.5q4.9-9.6 13.5-15.5 2.3-2.7 8-2l6.5 5.5 3 6v3l-5.5 6.5-8 6h-5l-5.5-3-4 7.5-1 9 2.5 3.5 5 1 14-6 16-12h3q2.7-5.2 8.5-6 4.9-12.4 13.5-22l3-1 6.5 4.5-1 4 1.5.5q2.9-4.6 10-5l6.5 5.5 1 7-1 2.5-2.5 1q-4.2-1.3-3.5-6l-4.5 1-16.5 15.5q.8 2.3-1.5 1.5L586 305.5l-3 5v3l-2.5 2.5q-5.5-.4-7.5-4.5l-1-3 6-12-1.5-.5-22 16q-4.8 2.3-13 1l-9.5-7.5-3-6V295l-21.5 17-8 1-2.5-1-5-8.5-.5-6.5-12 17q-4.3 6.2-14 7l-7.5-4.5-4-8v-13l1-4-2.5 1.5-23 17q-5.5 4.5-17 3l-7.5-5.5q-4.4-4.2-5-11.5-2.7-1.1-2 1.5L372.5 327l-7 1-3.5-2-5-8.5v-9l4-11-1.5-.5-8.5 7.5-2 3q-5 6-14.5 7.5l-5.5-2-4-7.5-1-9 2-9-2 1-1.5 2.5q-2.2-.7-1.5 1.5L305.5 310q-7.6 1.1-9.5-3.5-4.5-3.5-3-13l5-10 16.5-19.5h5l5.5 4.5 1 3.5 12.5-10h3l3.5 2.5 2 4-6 8-7 16-1 12.5 7.5-3 18.5-15.5 3.5-4.5 7.5-5.5 16-28.5-12.5-1-4.5-3.5q-1.1-3.3 1.5-2.5l1-1q13.6 1.4 21.5-1l1-3.5 22-31.5Zm11 66-3 2-4 5 8-6-1-1Zm127 1-6 6 1 1 4-3 2-3-1-1Zm-235 3q-11 9-17 24l1 1 17-19-1-6Z"/><path fill="#D17BA6" stroke="#D17BA6" d="M519.5 234q5.8-.7 6.5 3.5v5l-7.5 9.5-3.5-1-1-3.5 1-5 4.5-8.5Z"/></svg>