<svg xmlns="http://www.w3.org/2000/svg" viewBox="90 85 820 260"><path fill="#FFFFFF" stroke="#FFFFFF" d="M103.5 89h10l1.5 1.5V187h43.5l.5.5v6.5h-56.5l-1.5-1.5v-102l1.5-.5 1-1ZM209.5 89q5.3-1.2 6.5 1.5l26 69 10 23 3 11.5h-13.5l-.5-2.5-32.5-81.5-34.5 84h-7v-3.5l36-86 3-10 3.5-5.5ZM264.5 89h38q1.5 2.5 7 1 18.9 4.6 29.5 17.5l10 17 2 8v19q-4.3 18.7-16.5 29.5-9.9 9.1-25 13H263V90.5l1.5-1.5Zm12.5 8v90h23l5-1q10-2 17-8 13-10 17-28 2-24-9-35-9-12-24-17l-4-1h-25ZM340 89h14.5l1.5 1.5 26.5 44.5L407 89h8v2.5l-29 53V194q-3.3 2.1-11.5 1l-2.5-1v-49.5l-30-49-2-6.5ZM483.5 89h10l1.5 1.5V187h43.5q3 1.6 1.5 7h-58V90.5l1.5-1.5ZM589.5 89q6.3-1.2 7.5 2.5l39 101-1.5 1.5H621l-31-83q-2.7-1.1-2 1.5l-25 59-3 10-6.5 12.5H547v-2.5L589.5 89ZM736.5 89h35l5 1q9.9 3.1 15.5 10.5 6.9 7.1 5 23-2.6 10.9-10.5 16.5l-9.5 4 1.5 3 12.5 11.5q6.2 7.8 9 19l1 16.5h-12v-9.5l-3-12q-4.2-10.3-11.5-17.5l-14-9h-10l-1-1-.5 47.5-2.5 2.5h-10l-1.5-1.5v-103l1.5-1.5Zm12.5 8v41q16 2 27-3 7-4 9-13 1-11-3-15l-10-9-23-1ZM851.5 89q6.3-1.2 7.5 2.5L898 194h-14.5l-.5-2.5q-17.2-39.1-31-80.5-3-1.2-2 2.5l-15 34-18 46.5h-8v-3.5l40-98 2.5-3.5ZM637 90h12.5l.5.5v70q2.5 15.5 13.5 22.5l11 4h8q11.3-2.2 17.5-9.5 5.3-5.7 7-15V90h12.5l.5.5v71q-4 17-16.5 25.5l-14 7-15 1-16-5-12.5-10.5q-6.9-7.6-9-20V90ZM416 204q6.4-1 8 4.5v4q-11.1 11.4-19 26l2.5.5q1.7-2.8 8-1l4.5 2.5q2.8 3 2 8.5l-2.5 1-8-2H398l-16 26.5-13 27-3 10v7.5h1.5l10.5-10.5 37.5-42.5 6-5 6-1 7.5 6.5q2.6 2.9 2 9l-4 5.5-8.5 6h-6l-4-3q-6.2 4.8-6.5 15.5l2 4.5 5.5 1 7-2 12-7 24.5-17.5 9-22 27-45 6.5-7.5q6.5-1 7.5 3.5v4l-6 14q-8 9-13 21l-19 25-7 19-2 10v10l3.5 1.5q9.5-4 14.5-12.5l14.5-18.5 3.5-2.5 8.5-17.5q5.1-.6 6.5 2.5l1 6-3 3-7 14-3 16.5 5.5-2 28.5-23.5q4.9-9.6 13.5-15.5 2.3-2.7 8-2l6.5 5.5 3 6v3l-5.5 6.5-8 6h-5l-5.5-3-4 7.5-1 9 2.5 3.5 5 1 14-6 16-12h3q2.7-5.2 8.5-6 4.9-12.4 13.5-22l3-1 6.5 4.5-1 4 1.5.5q2.9-4.6 10-5l6.5 5.5 1 7-1 2.5-2.5 1q-4.2-1.3-3.5-6l-4.5 1-16.5 15.5q.8 2.3-1.5 1.5L586 305.5l-3 5v3l-2.5 2.5q-5.5-.4-7.5-4.5l-1-3 6-12-1.5-.5-22 16q-4.8 2.3-13 1l-9.5-7.5-3-6V295l-21.5 17-8 1-2.5-1-5-8.5-.5-6.5-12 17q-4.3 6.2-14 7l-7.5-4.5-4-8v-13l1-4-2.5 1.5-23 17q-5.5 4.5-17 3l-7.5-5.5q-4.4-4.2-5-11.5-2.7-1.1-2 1.5L372.5 327l-7 1-3.5-2-5-8.5v-9l4-11-1.5-.5-8.5 7.5-2 3q-5 6-14.5 7.5l-5.5-2-4-7.5-1-9 2-9-2 1-1.5 2.5q-2.2-.7-1.5 1.5L305.5 310q-7.6 1.1-9.5-3.5-4.5-3.5-3-13l5-10 16.5-19.5h5l5.5 4.5 1 3.5 12.5-10h3l3.5 2.5 2 4-6 8-7 16-1 12.5 7.5-3 18.5-15.5 3.5-4.5 7.5-5.5 16-28.5-12.5-1-4.5-3.5q-1.1-3.3 1.5-2.5l1-1q13.6 1.4 21.5-1l1-3.5 22-31.5Zm11 66-3 2-4 5 8-6-1-1Zm127 1-6 6 1 1 4-3 2-3-1-1Zm-235 3q-11 9-17 24l1 1 17-19-1-6Z"/><path fill="#FFFFFF" stroke="#FFFFFF" d="M519.5 234q5.8-.7 6.5 3.5v5l-7.5 9.5-3.5-1-1-3.5 1-5 4.5-8.5Z"/></svg>